# xmcd
#
# Track frame offsets: 
#        150
#        20615
#        41830
#        63165
#        84938
#        105605
#        128065
#        147230
#        166820
#        188805
#
# Disc length: 2756 seconds
#
# Revision: 0
# Processed by: cddbd v1.5.2PL0 Copyright (c) Steve Scherf et al.
# Submitted via: ExactAudioCopy v1.0b3
#
DISCID=7d0ac20a
DTITLE=Huong Lan, Thanh Tuyen, Che Linh - Hue Mu Suong
DYEAR=1989
DGENRE=
TTITLE0=Huong Lan - Hue mu suong
TTITLE1=Thanh Tuyen - Giac ngu co don
TTITLE2=Che Linh - Nhung chuyen tinh mong manh
TTITLE3=Huong Lan - Hue da xa roi
TTITLE4=Thanh Tuyen - Thung lung chim bay
TTITLE5=Huong Lan - Thuong ve mien dat lanh
TTITLE6=Thanh Tuyen - Gio nay anh o dau
TTITLE7=Che Linh - Lanh tron dem mua
TTITLE8=Huong Lan - Tieng hat trong suong
TTITLE9=Thanh Tuyen - Hai loi mong
EXTD=
EXTT0=
EXTT1=
EXTT2=
EXTT3=
EXTT4=
EXTT5=
EXTT6=
EXTT7=
EXTT8=
EXTT9=
PLAYORDER=
